<?xml version="1.0" encoding="UTF-8" standalone="no"?>
<svg xmlns:dc="http://purl.org/dc/elements/1.1/" xmlns:cc="http://creativecommons.org/ns#" xmlns:rdf="http://www.w3.org/1999/02/22-rdf-syntax-ns#" xmlns:svg="http://www.w3.org/2000/svg" xmlns="http://www.w3.org/2000/svg" xmlns:sodipodi="http://sodipodi.sourceforge.net/DTD/sodipodi-0.dtd" xmlns:inkscape="http://www.inkscape.org/namespaces/inkscape" width="32" height="32" viewBox="0 0 8.4666665 8.4666669" version="1.1" id="svg11514" inkscape:version="0.91 r13725" sodipodi:docname="basket-cart-ecommerce-online-shopping-shop.svg">
  <defs id="defs11508"/>
  <sodipodi:namedview id="base" pagecolor="#ffffff" bordercolor="#666666" borderopacity="1.0" inkscape:pageopacity="0.0" inkscape:pageshadow="2" inkscape:zoom="15.839192" inkscape:cx="11.118619" inkscape:cy="13.363325" inkscape:document-units="mm" inkscape:current-layer="layer1" showgrid="false" units="px" inkscape:window-width="1366" inkscape:window-height="716" inkscape:window-x="-8" inkscape:window-y="-8" inkscape:window-maximized="1"/>
  
  <g inkscape:label="Layer 1" inkscape:groupmode="layer" id="layer1" transform="translate(0,-288.53332)">
    <path inkscape:connector-curvature="0" id="path14619" d="m 0.9949671,289.9224 a 0.19841184,0.19844025 0 1 0 0,0.39684 l 0.6700888,0 c 0.142218,0 0.2670383,0.0908 0.3115363,0.22787 l 0.8901823,2.74275 -0.3916179,0.27438 c -0.1375571,0.0962 -0.2257674,0.24622 -0.2257754,0.43303 l 0,0.0268 c 0,0.28975 0.2393666,0.52862 0.5290454,0.52862 l 4.4286888,0 a 0.19841184,0.19844025 0 1 0 0,-0.39684 l -4.4286888,0 c -0.075402,0 -0.1322614,-0.0566 -0.1322614,-0.13178 l 0,-0.0268 c 2.7e-6,-0.0288 0.040676,-0.0971 0.056314,-0.10799 l 0.4706651,-0.32917 3.1546392,0 c 0.1996988,0 0.3779077,-0.13053 0.43915,-0.32036 l 0.6184249,-1.91806 c 0.094569,-0.29319 -0.1307615,-0.60561 -0.43915,-0.60561 l -3.8371288,0 a 0.19841184,0.19844025 0 1 0 0,0.39684 l 3.8371288,0 c 0.049029,0 0.077167,0.0387 0.061483,0.0873 l -0.1214132,0.37565 -3.2460847,0 a 0.13227455,0.1322935 0 1 0 0,0.26456 l 3.1608396,0 -0.1704955,0.52912 -2.4612988,0 a 0.13227452,0.13229346 0 1 0 0,0.26456 l 2.3760538,0 -0.1560287,0.48364 c -0.00915,0.0283 -0.033079,0.0455 -0.06148,0.0455 l -3.084374,0 -0.889148,-2.7386 C 2.2574386,290.12643 1.9783407,289.9224 1.6650559,289.9224 Z" style="color:#000000;font-style:normal;font-variant:normal;font-weight:normal;font-stretch:normal;font-size:medium;line-height:normal;font-family:sans-serif;text-indent:0;text-align:start;text-decoration:none;text-decoration-line:none;text-decoration-style:solid;text-decoration-color:#000000;letter-spacing:normal;word-spacing:normal;text-transform:none;direction:ltr;writing-mode:lr-tb;baseline-shift:baseline;text-anchor:start;white-space:normal;clip-rule:nonzero;display:inline;overflow:visible;visibility:visible;opacity:1;isolation:auto;mix-blend-mode:normal;color-interpolation:sRGB;color-interpolation-filters:linearRGB;solid-color:#000000;solid-opacity:1;fill:#ffffff;fill-opacity:1;fill-rule:evenodd;stroke:none;stroke-width:1.5;stroke-linecap:round;stroke-linejoin:round;stroke-miterlimit:4;stroke-dasharray:none;stroke-dashoffset:0;stroke-opacity:1;color-rendering:auto;image-rendering:auto;shape-rendering:auto;text-rendering:auto;enable-background:accumulate"/>
    <path inkscape:connector-curvature="0" style="opacity:1;fill:#fff;fill-opacity:1;stroke:none;stroke-width:1;stroke-linecap:round;stroke-linejoin:round;stroke-miterlimit:4;stroke-dasharray:none;stroke-opacity:1" d="m 3.902886,295.28023 a 0.39678401,0.39684083 0 0 1 -0.396784,0.39684 0.39678401,0.39684083 0 0 1 -0.396784,-0.39684 0.39678401,0.39684083 0 0 1 0.396784,-0.39684 0.39678401,0.39684083 0 0 1 0.396784,0.39684 z" id="path14627"/>
    <path inkscape:connector-curvature="0" style="opacity:1;fill:#fff;fill-opacity:1;stroke:none;stroke-width:1;stroke-linecap:round;stroke-linejoin:round;stroke-miterlimit:4;stroke-dasharray:none;stroke-opacity:1" d="m 6.5481127,295.28023 a 0.39678401,0.39684083 0 0 1 -0.396784,0.39684 0.39678401,0.39684083 0 0 1 -0.396784,-0.39684 0.39678401,0.39684083 0 0 1 0.396784,-0.39684 0.39678401,0.39684083 0 0 1 0.396784,0.39684 z" id="path14629"/>
  </g>

	<metadata>
		<rdf:RDF xmlns:rdf="http://www.w3.org/1999/02/22-rdf-syntax-ns#" xmlns:rdfs="http://www.w3.org/2000/01/rdf-schema#" xmlns:dc="http://purl.org/dc/elements/1.1/">
			<rdf:Description about="https://iconscout.com/legal#licenses" dc:title="basket-cart-ecommerce-online-shopping-shop" dc:description="basket-cart-ecommerce-online-shopping-shop" dc:publisher="Iconscout" dc:date="2017-06-28" dc:format="image/svg+xml" dc:language="en">
				<dc:creator>
					<rdf:Bag>
						<rdf:li>Vignesh Oviyan</rdf:li>
					</rdf:Bag>
				</dc:creator>
			</rdf:Description>
		</rdf:RDF>
    </metadata></svg>
